<?xml version="1.0" encoding="UTF-8"?><!DOCTYPE svg PUBLIC "-//W3C//DTD SVG 1.1//EN" "http://www.w3.org/Graphics/SVG/1.1/DTD/svg11.dtd"><svg xmlns="http://www.w3.org/2000/svg"><symbol id="back-new" viewBox="0 0 52 52"><path d="M26 0C11.663 0 0 11.663 0 26s11.663 26 26 26 26-11.663 26-26S40.337 0 26 0zm0 50C12.767 50 2 39.233 2 26S12.767 2 26 2s24 10.767 24 24-10.767 24-24 24z"/><path d="M32 36.783V15.438L14.043 25.806 32 36.783zm-2-3.566l-12.043-7.362L30 18.902v14.315z"/></symbol><symbol id="back" viewBox="0 0 477.175 477.175"><path d="M145.188 238.575l215.5-215.5c5.3-5.3 5.3-13.8 0-19.1s-13.8-5.3-19.1 0l-225.1 225.1c-5.3 5.3-5.3 13.8 0 19.1l225.1 225c2.6 2.6 6.1 4 9.5 4s6.9-1.3 9.5-4c5.3-5.3 5.3-13.8 0-19.1l-215.4-215.5z"/></symbol><symbol id="handle" viewBox="0 0 52.916664 12.002197"><path d="M0 10.002v-2h52.917v4H0zM0 2V0h52.917v4H0z"/></symbol><symbol id="menu" viewBox="0 0 24.562065 23.636288"><path d="M23.769 0H.794A.795.795 0 0 0 0 .794v3.528c0 .437.356.793.794.793h22.974a.795.795 0 0 0 .794-.793V.794A.794.794 0 0 0 23.77 0zM23.769 9.26H.794a.795.795 0 0 0-.794.794v3.528c0 .438.356.794.794.794h22.974a.795.795 0 0 0 .794-.794v-3.528a.794.794 0 0 0-.793-.794zM23.769 18.52H.794a.795.795 0 0 0-.794.795v3.528c0 .437.356.793.794.793h22.974a.795.795 0 0 0 .794-.793v-3.528a.794.794 0 0 0-.793-.794z"/></symbol><symbol id="next-new" viewBox="0 0 129 129"><path d="M64.5 122.6c32 0 58.1-26 58.1-58.1S96.5 6.4 64.5 6.4 6.4 32.5 6.4 64.5s26.1 58.1 58.1 58.1zm0-108c27.5 0 49.9 22.4 49.9 49.9S92 114.4 64.5 114.4 14.6 92 14.6 64.5 37 14.6 64.5 14.6z"/><path d="M51.1 93.5c.8.8 1.8 1.2 2.9 1.2 1 0 2.1-.4 2.9-1.2l26.4-26.4c.8-.8 1.2-1.8 1.2-2.9 0-1.1-.4-2.1-1.2-2.9L56.9 34.9c-1.6-1.6-4.2-1.6-5.8 0-1.6 1.6-1.6 4.2 0 5.8l23.5 23.5-23.5 23.5c-1.6 1.6-1.6 4.2 0 5.8z"/></symbol><symbol id="next" viewBox="0 0 477.175 477.175"><path d="M360.731 229.075l-225.1-225.1c-5.3-5.3-13.8-5.3-19.1 0s-5.3 13.8 0 19.1l215.5 215.5-215.5 215.5c-5.3 5.3-5.3 13.8 0 19.1 2.6 2.6 6.1 4 9.5 4 3.4 0 6.9-1.3 9.5-4l225.1-225.1c5.3-5.2 5.3-13.8.1-19z"/></symbol><symbol id="play-new" viewBox="0 0 191.255 191.255"><path d="M162.929 66.612a6 6 0 1 0-6.35 10.183c6.544 4.081 10.45 11.121 10.45 18.833s-3.906 14.752-10.45 18.833l-98.417 61.365c-6.943 4.329-15.359 4.542-22.512.573-7.154-3.97-11.425-11.225-11.425-19.406V34.262c0-8.181 4.271-15.436 11.425-19.406 7.153-3.969 15.569-3.756 22.512.573l57.292 35.723a6 6 0 1 0 6.35-10.183L64.512 5.247c-10.696-6.669-23.661-7-34.685-.883-11.021 6.116-17.601 17.293-17.601 29.898v122.73c0 12.605 6.58 23.782 17.602 29.898 5.25 2.913 10.939 4.364 16.616 4.364 6.241 0 12.467-1.754 18.068-5.247l98.417-61.365c10.082-6.287 16.101-17.133 16.101-29.015s-6.019-22.728-16.101-29.015z"/></symbol><symbol id="play" viewBox="0 0 41.999 41.999"><path d="M36.068 20.176l-29-20A1 1 0 1 0 5.5.999v40a1 1 0 0 0 1.568.823l29-20a.999.999 0 0 0 0-1.646zM7.5 39.095V2.904L33.739 21 7.5 39.095z"/></symbol><symbol id="settings" viewBox="0 0 72.248894 70.555557"><path d="M31.06 68.227a285.078 285.078 0 0 1-2.17-4.836L27.8 60.883l-2.167-.843-2.166-.844-4.325 1.832c-2.378 1.007-4.588 1.913-4.91 2.014-.468.146-1.163-.363-3.47-2.54-3.412-3.218-3.35-2.492-.747-8.62l1.758-4.139-.901-2.173-.901-2.172L6.732 42.2c-1.78-.659-4.023-1.55-4.985-1.982L0 39.434v-8.046l2.61-1.138c1.436-.626 3.67-1.56 4.963-2.077l2.351-.939.824-1.932c.453-1.064.823-2.13.823-2.37 0-.24-.56-1.658-1.245-3.152a129.189 129.189 0 0 1-2.028-4.673l-.784-1.957 2.936-2.755c2.534-2.378 3.034-2.73 3.651-2.578.394.098 2.597.919 4.896 1.825 2.3.906 4.335 1.647 4.524 1.647.189 0 1.228-.373 2.31-.83L27.8 9.63l1.57-3.898c.865-2.143 1.789-4.31 2.054-4.815L31.906 0H40.067l.804 1.623c.442.892 1.356 2.956 2.03 4.586.676 1.63 1.363 3.105 1.53 3.279.165.174 1.212.666 2.325 1.094l2.025.779 4.325-1.832c2.38-1.008 4.586-1.914 4.904-2.013.458-.142 1.183.392 3.513 2.589l2.936 2.768-.796 2.242c-.438 1.233-1.336 3.462-1.997 4.953l-1.202 2.711.912 2.201.913 2.202 3.256 1.196c1.79.658 4.031 1.544 4.98 1.97l1.724.774v8.045l-2.61 1.139c-1.436.626-3.67 1.56-4.963 2.076l-2.351.94-.824 1.932c-.453 1.063-.823 2.13-.823 2.37 0 .241.614 1.784 1.364 3.43.75 1.645 1.67 3.74 2.044 4.656l.681 1.665-2.948 2.78c-1.622 1.53-3.06 2.78-3.196 2.78-.137 0-2.365-.842-4.953-1.87l-4.704-1.872-1.296.456c-3.287 1.156-3.188 1.068-4.213 3.765a99.529 99.529 0 0 1-2.004 4.813l-1.059 2.329h-8.257zm8.188-22.115c2.293-.68 3.466-1.364 5.047-2.945 3.598-3.598 4.37-8.597 2.035-13.165-.75-1.465-3.112-3.863-4.506-4.573-4.816-2.453-10.221-1.69-13.87 1.96-4.508 4.507-4.509 11.27-.003 15.775.784.784 1.833 1.638 2.33 1.898 2.81 1.467 6.216 1.866 8.967 1.05z"/></symbol><symbol id="shuffle-arrows" viewBox="0 0 473.031 473.031"><path d="M467.605 353.397l-72.67-41.957c-5.188-3.003-11.832-1.217-14.824 3.973-2.998 5.19-1.219 11.828 3.973 14.826l37.58 21.698h-97.793L137.805 103.73a10.853 10.853 0 0 0-8.685-4.343H10.854C4.86 99.388 0 104.248 0 110.241c0 5.994 4.859 10.854 10.854 10.854h112.838l186.066 248.207a10.85 10.85 0 0 0 8.684 4.343h103.234l-37.594 21.699c-5.189 2.995-6.971 9.633-3.973 14.826a10.852 10.852 0 0 0 9.41 5.43c1.842 0 3.707-.469 5.416-1.457l72.67-41.947c3.357-1.938 5.426-5.52 5.426-9.397s-2.068-7.463-5.426-9.402z"/><path d="M238.62 216.158a10.79 10.79 0 0 0 6.524 2.186c3.289 0 6.541-1.492 8.676-4.322l70.031-92.927h97.812l-37.58 21.699c-5.191 2.998-6.971 9.635-3.973 14.827a10.85 10.85 0 0 0 9.41 5.429c1.84 0 3.705-.469 5.414-1.458l72.67-41.958a10.855 10.855 0 0 0 0-18.798l-72.67-41.947c-5.188-3-11.832-1.216-14.824 3.972-2.998 5.193-1.219 11.831 3.973 14.826l37.594 21.7H318.441a10.855 10.855 0 0 0-8.668 4.322l-73.289 97.249c-3.61 4.786-2.652 11.594 2.136 15.2zM208.974 256.275c-4.797-3.596-11.602-2.62-15.194 2.174l-70.088 93.488H10.854C4.86 351.937 0 356.796 0 362.792c0 5.994 4.859 10.854 10.854 10.854h118.267c3.418 0 6.636-1.607 8.685-4.343l73.342-97.832c3.595-4.798 2.622-11.6-2.174-15.196z"/></symbol><symbol id="shuffle-new" viewBox="0 0 420 420"><path d="M210 21c104.216 0 189 84.784 189 189s-84.784 189-189 189S21 314.216 21 210 105.784 21 210 21m0-21C94.031 0 0 94.024 0 210s94.031 210 210 210 210-94.024 210-210S325.969 0 210 0z"/><path d="M333.2 132.286l-30.31-28c-4.249-3.941-10.899-3.675-14.833.588-3.941 4.249-3.661 10.899.588 14.833l10.717 9.905c-53.431 1.12-97.153 12.145-107.352 89.509-8.099 61.46-35.546 71.379-98.091 71.379-5.803 0-10.5 4.704-10.5 10.5s4.697 10.5 10.5 10.5c58.604 0 107.996-6.748 118.909-89.628 7.56-57.421 32.046-69.846 86.24-71.225l-10.43 9.639c-4.249 3.934-4.522 10.584-.588 14.833 3.941 4.263 10.584 4.522 14.833.588l30.31-28c2.163-1.981 3.374-4.788 3.374-7.714s-1.211-5.719-3.367-7.707z"/><path d="M83.419 126c0-5.796 4.697-10.5 10.5-10.5 41.79 0 78.897 3.458 100.702 35.49-4.494 6.167-8.491 13.237-11.935 21.287-13.86-29.939-41.104-35.777-88.767-35.777-5.796 0-10.5-4.704-10.5-10.5zM302.89 251.286c-4.249-3.941-10.899-3.675-14.833.588-3.941 4.249-3.661 10.906.588 14.833l10.43 9.639c-34.629-.882-57.085-6.335-70.784-25.095-2.303 8.211-5.089 15.589-8.26 22.225 19.866 19.033 47.887 23.24 79.331 23.905l-10.717 9.905c-4.249 3.941-4.522 10.584-.588 14.833 3.941 4.263 10.584 4.522 14.833.588l30.31-28c2.163-1.981 3.374-4.788 3.374-7.714s-1.218-5.726-3.374-7.714l-30.31-27.993z"/></symbol><symbol id="shuffle" viewBox="0 0 72.24894 66.746238"><path fill="#020202" d="M57.291 60.892v-5.854h-1.374c-2.259 0-6.189-.807-8.386-1.721-5.653-2.354-9.863-6.811-16.704-17.686-7.158-11.38-9.53-14.133-14.035-16.292-2.737-1.312-4.46-1.554-11.058-1.554H0v-6.272l6.985.14c7.526.153 8.65.33 12.108 1.897 2.492 1.13 4.132 2.313 6.824 4.92 3.002 2.909 4.983 5.592 9.808 13.285 4.533 7.226 6.186 9.534 8.473 11.83 3.25 3.261 6.562 4.85 10.759 5.157l2.323.17.076-5.97.076-5.97 7.409 7.412 7.408 7.412-7.479 7.475-7.479 7.475zM0 51.934v-3.105l5.433-.002c5.441-.002 8.048-.25 10.12-.965 3.016-1.039 6.613-4.085 9.505-8.05.855-1.172 1.64-2.229 1.745-2.349.105-.12.983 1.054 1.951 2.61l1.76 2.828-1.251 1.623c-1.928 2.502-5.8 6.065-8.029 7.39-4.19 2.488-7.433 3.124-15.935 3.124H0zm57.291-28.195v-6.035l-2.246.187c-5.59.466-9.924 3.178-13.874 8.68-2.28 3.177-1.844 3.18-3.874-.026l-1.79-2.828 1.415-1.778c2.139-2.688 5.652-5.912 7.893-7.243 2.883-1.713 5.498-2.537 9.245-2.911l3.22-.322.076-5.731L57.432 0l7.409 7.413 7.408 7.412L64.77 22.3l-7.479 7.475z"/></symbol><symbol id="stop-new" viewBox="0 0 60 60"><path d="M16 44h28V16H16v28zm2-26h24v24H18V18z"/><path d="M30 0C13.458 0 0 13.458 0 30s13.458 30 30 30 30-13.458 30-30S46.542 0 30 0zm0 58C14.561 58 2 45.439 2 30S14.561 2 30 2s28 12.561 28 28-12.561 28-28 28z"/></symbol><symbol id="stop" viewBox="0 0 36 36"><path d="M35 0H1a1 1 0 0 0-1 1v34a1 1 0 0 0 1 1h34a1 1 0 0 0 1-1V1a1 1 0 0 0-1-1zm-1 34H2V2h32v32z"/></symbol></svg>