<?xml version="1.0" encoding="UTF-8"?><!DOCTYPE svg PUBLIC "-//W3C//DTD SVG 1.1//EN" "http://www.w3.org/Graphics/SVG/1.1/DTD/svg11.dtd"><svg xmlns="http://www.w3.org/2000/svg"><symbol id="back-new" viewBox="0 0 52 52"><path d="M26 0C11.663 0 0 11.663 0 26s11.663 26 26 26 26-11.663 26-26S40.337 0 26 0zm0 50C12.767 50 2 39.233 2 26S12.767 2 26 2s24 10.767 24 24-10.767 24-24 24z"/><path d="M32 36.783V15.438L14.043 25.806 32 36.783zm-2-3.566l-12.043-7.362L30 18.902v14.315z"/></symbol><symbol id="back" viewBox="0 0 477.175 477.175"><path d="M145.188 238.575l215.5-215.5c5.3-5.3 5.3-13.8 0-19.1s-13.8-5.3-19.1 0l-225.1 225.1c-5.3 5.3-5.3 13.8 0 19.1l225.1 225c2.6 2.6 6.1 4 9.5 4s6.9-1.3 9.5-4c5.3-5.3 5.3-13.8 0-19.1l-215.4-215.5z"/></symbol><symbol id="handle" viewBox="0 0 52.916664 12.002197"><path d="M0 10.002v-2h52.917v4H0zM0 2V0h52.917v4H0z"/></symbol><symbol id="menu" viewBox="0 0 24 24"><path d="M24 3c0-.6-.4-1-1-1H1c-.6 0-1 .4-1 1v2c0 .6.4 1 1 1h22c.6 0 1-.4 1-1V3zM24 11c0-.6-.4-1-1-1H1c-.6 0-1 .4-1 1v2c0 .6.4 1 1 1h22c.6 0 1-.4 1-1v-2zM24 19c0-.6-.4-1-1-1H1c-.6 0-1 .4-1 1v2c0 .6.4 1 1 1h22c.6 0 1-.4 1-1v-2z"/></symbol><symbol id="next-new" viewBox="0 0 129 129"><path d="M64.5 122.6c32 0 58.1-26 58.1-58.1S96.5 6.4 64.5 6.4 6.4 32.5 6.4 64.5s26.1 58.1 58.1 58.1zm0-108c27.5 0 49.9 22.4 49.9 49.9S92 114.4 64.5 114.4 14.6 92 14.6 64.5 37 14.6 64.5 14.6z"/><path d="M51.1 93.5c.8.8 1.8 1.2 2.9 1.2 1 0 2.1-.4 2.9-1.2l26.4-26.4c.8-.8 1.2-1.8 1.2-2.9 0-1.1-.4-2.1-1.2-2.9L56.9 34.9c-1.6-1.6-4.2-1.6-5.8 0-1.6 1.6-1.6 4.2 0 5.8l23.5 23.5-23.5 23.5c-1.6 1.6-1.6 4.2 0 5.8z"/></symbol><symbol id="next" viewBox="0 0 477.175 477.175"><path d="M360.731 229.075l-225.1-225.1c-5.3-5.3-13.8-5.3-19.1 0s-5.3 13.8 0 19.1l215.5 215.5-215.5 215.5c-5.3 5.3-5.3 13.8 0 19.1 2.6 2.6 6.1 4 9.5 4 3.4 0 6.9-1.3 9.5-4l225.1-225.1c5.3-5.2 5.3-13.8.1-19z"/></symbol><symbol id="play-new" viewBox="0 0 191.255 191.255"><path d="M162.929 66.612a6 6 0 1 0-6.35 10.183c6.544 4.081 10.45 11.121 10.45 18.833s-3.906 14.752-10.45 18.833l-98.417 61.365c-6.943 4.329-15.359 4.542-22.512.573-7.154-3.97-11.425-11.225-11.425-19.406V34.262c0-8.181 4.271-15.436 11.425-19.406 7.153-3.969 15.569-3.756 22.512.573l57.292 35.723a6 6 0 1 0 6.35-10.183L64.512 5.247c-10.696-6.669-23.661-7-34.685-.883-11.021 6.116-17.601 17.293-17.601 29.898v122.73c0 12.605 6.58 23.782 17.602 29.898 5.25 2.913 10.939 4.364 16.616 4.364 6.241 0 12.467-1.754 18.068-5.247l98.417-61.365c10.082-6.287 16.101-17.133 16.101-29.015s-6.019-22.728-16.101-29.015z"/></symbol><symbol id="play" viewBox="0 0 41.999 41.999"><path d="M36.068 20.176l-29-20A1 1 0 1 0 5.5.999v40a1 1 0 0 0 1.568.823l29-20a.999.999 0 0 0 0-1.646zM7.5 39.095V2.904L33.739 21 7.5 39.095z"/></symbol><symbol id="settings" viewBox="0 0 134.93748 132.82915"><path d="M59.626 131.704c-.838-1.328-2.255-4.45-5.362-11.81l-2.273-5.386-4.144-1.659-4.143-1.658-3.53 1.577c-4.825 2.155-10.827 4.642-13.023 5.397l-1.821.625-1.751-1.565c-.963-.861-3.405-3.23-5.427-5.263-3.472-3.493-3.667-3.744-3.51-4.523.219-1.098 2.073-5.824 4.86-12.39l2.275-5.362-1.718-4.029-1.718-4.029-3.151-1.152c-4.84-1.77-12.532-4.812-13.933-5.511L0 74.339v-15.24l.992-.552c1.136-.632 8.033-3.551 13.296-5.628 1.964-.775 3.7-1.507 3.857-1.627.157-.12 1.03-1.992 1.94-4.16l1.652-3.941-2.171-4.723c-2.36-5.133-4.745-10.73-5.285-12.402l-.34-1.054 5.364-5.23c2.95-2.876 5.532-5.23 5.739-5.23.594 0 7.683 2.64 13.392 4.988l5.23 2.15 4.131-1.685 4.13-1.685 1.77-4.596C56.153 7.351 58.682 1.467 59.308.67L59.835 0h14.771l.654.992c.761 1.157 2.25 4.439 5.414 11.935l2.274 5.386 4.143 1.659 4.143 1.658 3.53-1.577c4.826-2.156 10.827-4.643 13.024-5.397l1.821-.626 2.015 1.83c1.109 1.007 3.55 3.375 5.427 5.264 3.213 3.233 3.402 3.481 3.246 4.258-.219 1.097-2.073 5.824-4.854 12.377l-2.27 5.348 1.71 4.045 1.71 4.045 3.418 1.257c5.304 1.95 12.282 4.707 13.67 5.4l1.257.628V73.71l-1.653.839c-2.107 1.069-6.58 2.97-11.973 5.09-2.328.914-4.364 1.765-4.523 1.889-.16.124-1.03 2.004-1.933 4.177l-1.643 3.952 2.286 4.97c2.41 5.242 4.591 10.368 5.157 12.122l.337 1.047-5.333 5.237c-2.934 2.88-5.513 5.236-5.732 5.236-.645 0-6.708-2.25-12.877-4.78l-5.741-2.355-4.15 1.682-4.148 1.682-1.807 4.699c-2.398 6.237-4.687 11.615-5.385 12.651l-.566.84-7.458.07-7.458.071zM73.822 92.26c4.827-1.25 9.004-3.676 12.462-7.238 3.388-3.49 5.523-7.26 6.793-11.994.587-2.186.675-3.055.675-6.618 0-3.562-.088-4.431-.675-6.617-1.312-4.893-3.72-9.025-7.261-12.462-3.491-3.389-7.26-5.524-11.994-6.794-2.186-.586-3.055-.675-6.618-.675-3.562 0-4.431.089-6.617.675-4.734 1.27-8.504 3.405-11.994 6.794-3.542 3.437-5.95 7.569-7.262 12.462-.586 2.186-.675 3.055-.675 6.617 0 3.563.089 4.432.675 6.618 1.313 4.893 3.72 9.025 7.262 12.462 5.42 5.262 11.875 7.765 19.405 7.526 2.379-.075 4.014-.288 5.824-.756z"/></symbol><symbol id="shuffle-arrows" viewBox="0 0 473.031 473.031"><path d="M467.605 353.397l-72.67-41.957c-5.188-3.003-11.832-1.217-14.824 3.973-2.998 5.19-1.219 11.828 3.973 14.826l37.58 21.698h-97.793L137.805 103.73a10.853 10.853 0 0 0-8.685-4.343H10.854C4.86 99.388 0 104.248 0 110.241c0 5.994 4.859 10.854 10.854 10.854h112.838l186.066 248.207a10.85 10.85 0 0 0 8.684 4.343h103.234l-37.594 21.699c-5.189 2.995-6.971 9.633-3.973 14.826a10.852 10.852 0 0 0 9.41 5.43c1.842 0 3.707-.469 5.416-1.457l72.67-41.947c3.357-1.938 5.426-5.52 5.426-9.397s-2.068-7.463-5.426-9.402z"/><path d="M238.62 216.158a10.79 10.79 0 0 0 6.524 2.186c3.289 0 6.541-1.492 8.676-4.322l70.031-92.927h97.812l-37.58 21.699c-5.191 2.998-6.971 9.635-3.973 14.827a10.85 10.85 0 0 0 9.41 5.429c1.84 0 3.705-.469 5.414-1.458l72.67-41.958a10.855 10.855 0 0 0 0-18.798l-72.67-41.947c-5.188-3-11.832-1.216-14.824 3.972-2.998 5.193-1.219 11.831 3.973 14.826l37.594 21.7H318.441a10.855 10.855 0 0 0-8.668 4.322l-73.289 97.249c-3.61 4.786-2.652 11.594 2.136 15.2zM208.974 256.275c-4.797-3.596-11.602-2.62-15.194 2.174l-70.088 93.488H10.854C4.86 351.937 0 356.796 0 362.792c0 5.994 4.859 10.854 10.854 10.854h118.267c3.418 0 6.636-1.607 8.685-4.343l73.342-97.832c3.595-4.798 2.622-11.6-2.174-15.196z"/></symbol><symbol id="shuffle-new" viewBox="0 0 420 420"><path d="M210 21c104.216 0 189 84.784 189 189s-84.784 189-189 189S21 314.216 21 210 105.784 21 210 21m0-21C94.031 0 0 94.024 0 210s94.031 210 210 210 210-94.024 210-210S325.969 0 210 0z"/><path d="M333.2 132.286l-30.31-28c-4.249-3.941-10.899-3.675-14.833.588-3.941 4.249-3.661 10.899.588 14.833l10.717 9.905c-53.431 1.12-97.153 12.145-107.352 89.509-8.099 61.46-35.546 71.379-98.091 71.379-5.803 0-10.5 4.704-10.5 10.5s4.697 10.5 10.5 10.5c58.604 0 107.996-6.748 118.909-89.628 7.56-57.421 32.046-69.846 86.24-71.225l-10.43 9.639c-4.249 3.934-4.522 10.584-.588 14.833 3.941 4.263 10.584 4.522 14.833.588l30.31-28c2.163-1.981 3.374-4.788 3.374-7.714s-1.211-5.719-3.367-7.707z"/><path d="M83.419 126c0-5.796 4.697-10.5 10.5-10.5 41.79 0 78.897 3.458 100.702 35.49-4.494 6.167-8.491 13.237-11.935 21.287-13.86-29.939-41.104-35.777-88.767-35.777-5.796 0-10.5-4.704-10.5-10.5zM302.89 251.286c-4.249-3.941-10.899-3.675-14.833.588-3.941 4.249-3.661 10.906.588 14.833l10.43 9.639c-34.629-.882-57.085-6.335-70.784-25.095-2.303 8.211-5.089 15.589-8.26 22.225 19.866 19.033 47.887 23.24 79.331 23.905l-10.717 9.905c-4.249 3.941-4.522 10.584-.588 14.833 3.941 4.263 10.584 4.522 14.833.588l30.31-28c2.163-1.981 3.374-4.788 3.374-7.714s-1.218-5.726-3.374-7.714l-30.31-27.993z"/></symbol><symbol id="shuffle" viewBox="0 0 49.7 49.7"><path d="M27 13.85h9v8.964l13.7-9.964L36 2.886v8.964h-9c-7.168 0-13 5.832-13 13 0 6.065-4.935 11-11 11H1a1 1 0 1 0 0 2h2c7.168 0 13-5.832 13-13 0-6.065 4.935-11 11-11zm11-7.036l8.3 6.036-8.3 6.036V6.814zM1 13.85h2c2.713 0 5.318.994 7.336 2.799a.998.998 0 0 0 1.412-.078 1 1 0 0 0-.078-1.412A12.983 12.983 0 0 0 3 11.85H1a1 1 0 1 0 0 2zM36 35.85h-9a10.99 10.99 0 0 1-7.278-2.748 1 1 0 1 0-1.322 1.5 12.988 12.988 0 0 0 8.601 3.248h9v8.964l13.7-9.964L36 26.886v8.964zm2-5.036l8.3 6.036-8.3 6.036V30.814z"/></symbol><symbol id="stop-new" viewBox="0 0 60 60"><path d="M16 44h28V16H16v28zm2-26h24v24H18V18z"/><path d="M30 0C13.458 0 0 13.458 0 30s13.458 30 30 30 30-13.458 30-30S46.542 0 30 0zm0 58C14.561 58 2 45.439 2 30S14.561 2 30 2s28 12.561 28 28-12.561 28-28 28z"/></symbol><symbol id="stop" viewBox="0 0 36 36"><path d="M35 0H1a1 1 0 0 0-1 1v34a1 1 0 0 0 1 1h34a1 1 0 0 0 1-1V1a1 1 0 0 0-1-1zm-1 34H2V2h32v32z"/></symbol></svg>