<svg xmlns="http://www.w3.org/2000/svg" viewBox="0 0 72.249 70.556" height="266.667" width="273.067"><path d="M31.06 68.227a285.078 285.078 0 0 1-2.17-4.836l-1.09-2.508-2.167-.843-2.166-.844-4.325 1.832c-2.378 1.007-4.588 1.913-4.91 2.014-.468.146-1.163-.363-3.47-2.54-3.412-3.218-3.35-2.492-.747-8.62l1.758-4.139-.901-2.173-.901-2.172L6.732 42.2c-1.78-.659-4.023-1.55-4.985-1.982L0 39.434v-8.046l2.61-1.138c1.436-.626 3.67-1.56 4.963-2.077l2.351-.939.824-1.932c.453-1.064.823-2.13.823-2.37 0-.24-.56-1.658-1.245-3.152a129.189 129.189 0 0 1-2.028-4.673l-.784-1.957 2.936-2.755c2.534-2.378 3.034-2.73 3.651-2.578.394.098 2.597.919 4.896 1.825 2.3.906 4.335 1.647 4.524 1.647.189 0 1.228-.373 2.31-.83L27.8 9.63l1.57-3.898c.865-2.143 1.789-4.31 2.054-4.815L31.906 0h8.161l.804 1.623c.442.892 1.356 2.956 2.03 4.586.676 1.63 1.363 3.105 1.53 3.279.165.174 1.212.666 2.325 1.094l2.025.779 4.325-1.832c2.38-1.008 4.586-1.914 4.904-2.013.458-.142 1.183.392 3.513 2.589l2.936 2.768-.796 2.242c-.438 1.233-1.336 3.462-1.997 4.953l-1.202 2.711.912 2.201.913 2.202 3.256 1.196c1.79.658 4.031 1.544 4.98 1.97l1.724.774v8.045l-2.61 1.139a208.26 208.26 0 0 1-4.963 2.076l-2.351.94-.824 1.932c-.453 1.063-.823 2.13-.823 2.37 0 .241.614 1.784 1.364 3.43.75 1.645 1.67 3.74 2.044 4.656l.681 1.665-2.948 2.78c-1.622 1.53-3.06 2.78-3.196 2.78-.137 0-2.365-.842-4.953-1.87l-4.704-1.872-1.296.456c-3.287 1.156-3.188 1.068-4.213 3.765a99.529 99.529 0 0 1-2.004 4.813l-1.059 2.329h-8.257zm8.188-22.115c2.293-.68 3.466-1.364 5.047-2.945 3.598-3.598 4.37-8.597 2.035-13.165-.75-1.465-3.112-3.863-4.506-4.573-4.816-2.453-10.221-1.69-13.87 1.96-4.508 4.507-4.509 11.27-.003 15.775.784.784 1.833 1.638 2.33 1.898 2.81 1.467 6.216 1.866 8.967 1.05z"/></svg>