<svg xmlns="http://www.w3.org/2000/svg" width="273.067" height="252.269" viewBox="0 0 72.249 66.746"><path d="M57.291 60.892v-5.854h-1.374c-2.259 0-6.189-.807-8.386-1.721-5.653-2.354-9.863-6.811-16.704-17.686-7.158-11.38-9.53-14.133-14.035-16.292-2.737-1.312-4.46-1.554-11.058-1.554H0v-6.272l6.985.14c7.526.153 8.65.33 12.108 1.897 2.492 1.13 4.132 2.313 6.824 4.92 3.002 2.909 4.983 5.592 9.808 13.285 4.533 7.226 6.186 9.534 8.473 11.83 3.25 3.261 6.562 4.85 10.759 5.157l2.323.17.076-5.97.076-5.97 7.409 7.412 7.408 7.412-7.479 7.475-7.479 7.475zM0 51.934v-3.105l5.433-.002c5.441-.002 8.048-.25 10.12-.965 3.016-1.039 6.613-4.085 9.505-8.05.855-1.172 1.64-2.229 1.745-2.349.105-.12.983 1.054 1.951 2.61l1.76 2.828-1.251 1.623c-1.928 2.502-5.8 6.065-8.029 7.39-4.19 2.488-7.433 3.124-15.935 3.124H0zm57.291-28.195v-6.035l-2.246.187c-5.59.466-9.924 3.178-13.874 8.68-2.28 3.177-1.844 3.18-3.874-.026l-1.79-2.828 1.415-1.778c2.139-2.688 5.652-5.912 7.893-7.243 2.883-1.713 5.498-2.537 9.245-2.911l3.22-.322.076-5.731L57.432 0l7.409 7.413 7.408 7.412L64.77 22.3l-7.479 7.475z" fill="#020202"/></svg>