<svg xmlns="http://www.w3.org/2000/svg" width="92.833" height="89.334" viewBox="0 0 24.562 23.636"><path d="M23.769 0H.794A.795.795 0 0 0 0 .794v3.528c0 .437.356.793.794.793h22.974a.795.795 0 0 0 .794-.793V.794A.794.794 0 0 0 23.77 0zm0 9.26H.794a.795.795 0 0 0-.794.794v3.528c0 .438.356.794.794.794h22.974a.795.795 0 0 0 .794-.794v-3.528a.794.794 0 0 0-.793-.794zm0 9.26H.794a.795.795 0 0 0-.794.795v3.528c0 .437.356.793.794.793h22.974a.795.795 0 0 0 .794-.793v-3.528a.794.794 0 0 0-.793-.794z"/></svg>