<svg xmlns="http://www.w3.org/2000/svg" width="510" height="502.031" viewBox="0 0 134.937 132.829"><path d="M59.626 131.704c-.838-1.328-2.255-4.45-5.362-11.81l-2.273-5.386-4.144-1.659-4.143-1.658-3.53 1.577c-4.825 2.155-10.827 4.642-13.023 5.397l-1.821.625-1.751-1.565c-.963-.861-3.405-3.23-5.427-5.263-3.472-3.493-3.667-3.744-3.51-4.523.219-1.098 2.073-5.824 4.86-12.39l2.275-5.362-1.718-4.029-1.718-4.029-3.151-1.152c-4.84-1.77-12.532-4.812-13.933-5.511L0 74.339v-15.24l.992-.552c1.136-.632 8.033-3.551 13.296-5.628 1.964-.775 3.7-1.507 3.857-1.627.157-.12 1.03-1.992 1.94-4.16l1.652-3.941-2.171-4.723c-2.36-5.133-4.745-10.73-5.285-12.402l-.34-1.054 5.364-5.23c2.95-2.876 5.532-5.23 5.739-5.23.594 0 7.683 2.64 13.392 4.988l5.23 2.15 4.131-1.685 4.13-1.685 1.77-4.596C56.153 7.351 58.682 1.467 59.308.67l.527-.67h14.771l.654.992c.761 1.157 2.25 4.439 5.414 11.935l2.274 5.386 4.143 1.659 4.143 1.658 3.53-1.577c4.826-2.156 10.827-4.643 13.024-5.397l1.821-.626 2.015 1.83c1.109 1.007 3.55 3.375 5.427 5.264 3.213 3.233 3.402 3.481 3.246 4.258-.219 1.097-2.073 5.824-4.854 12.377l-2.27 5.348 1.71 4.045 1.71 4.045 3.418 1.257c5.304 1.95 12.282 4.707 13.67 5.4l1.257.628V73.71l-1.653.839c-2.107 1.069-6.58 2.97-11.973 5.09-2.328.914-4.364 1.765-4.523 1.889-.16.124-1.03 2.004-1.933 4.177l-1.643 3.952 2.286 4.97c2.41 5.242 4.591 10.368 5.157 12.122l.337 1.047-5.333 5.237c-2.934 2.88-5.513 5.236-5.732 5.236-.645 0-6.708-2.25-12.877-4.78l-5.741-2.355-4.15 1.682-4.148 1.682-1.807 4.699c-2.398 6.237-4.687 11.615-5.385 12.651l-.566.84-7.458.07-7.458.071zM73.822 92.26c4.827-1.25 9.004-3.676 12.462-7.238 3.388-3.49 5.523-7.26 6.793-11.994.587-2.186.675-3.055.675-6.618 0-3.562-.088-4.431-.675-6.617-1.312-4.893-3.72-9.025-7.261-12.462-3.491-3.389-7.26-5.524-11.994-6.794-2.186-.586-3.055-.675-6.618-.675-3.562 0-4.431.089-6.617.675-4.734 1.27-8.504 3.405-11.994 6.794-3.542 3.437-5.95 7.569-7.262 12.462-.586 2.186-.675 3.055-.675 6.617 0 3.563.089 4.432.675 6.618 1.313 4.893 3.72 9.025 7.262 12.462 5.42 5.262 11.875 7.765 19.405 7.526 2.379-.075 4.014-.288 5.824-.756z"/></svg>