<svg xmlns="http://www.w3.org/2000/svg" viewBox="0 0 420 420"><path d="M210 21c104.216 0 189 84.784 189 189s-84.784 189-189 189S21 314.216 21 210 105.784 21 210 21m0-21C94.031 0 0 94.024 0 210s94.031 210 210 210 210-94.024 210-210S325.969 0 210 0z"/><path d="M333.2 132.286l-30.31-28c-4.249-3.941-10.899-3.675-14.833.588-3.941 4.249-3.661 10.899.588 14.833l10.717 9.905c-53.431 1.12-97.153 12.145-107.352 89.509-8.099 61.46-35.546 71.379-98.091 71.379-5.803 0-10.5 4.704-10.5 10.5s4.697 10.5 10.5 10.5c58.604 0 107.996-6.748 118.909-89.628 7.56-57.421 32.046-69.846 86.24-71.225l-10.43 9.639c-4.249 3.934-4.522 10.584-.588 14.833 3.941 4.263 10.584 4.522 14.833.588l30.31-28c2.163-1.981 3.374-4.788 3.374-7.714s-1.211-5.719-3.367-7.707z"/><path d="M83.419 126c0-5.796 4.697-10.5 10.5-10.5 41.79 0 78.897 3.458 100.702 35.49-4.494 6.167-8.491 13.237-11.935 21.287-13.86-29.939-41.104-35.777-88.767-35.777-5.796 0-10.5-4.704-10.5-10.5zM302.89 251.286c-4.249-3.941-10.899-3.675-14.833.588-3.941 4.249-3.661 10.906.588 14.833l10.43 9.639c-34.629-.882-57.085-6.335-70.784-25.095-2.303 8.211-5.089 15.589-8.26 22.225 19.866 19.033 47.887 23.24 79.331 23.905l-10.717 9.905c-4.249 3.941-4.522 10.584-.588 14.833 3.941 4.263 10.584 4.522 14.833.588l30.31-28c2.163-1.981 3.374-4.788 3.374-7.714s-1.218-5.726-3.374-7.714l-30.31-27.993z"/></svg>