<svg xmlns="http://www.w3.org/2000/svg" width="473.031" height="473.031"><path d="M467.605 353.397l-72.67-41.957c-5.188-3.003-11.832-1.217-14.824 3.973-2.998 5.19-1.219 11.828 3.973 14.826l37.58 21.698h-97.793L137.805 103.73a10.853 10.853 0 0 0-8.685-4.343H10.854C4.86 99.388 0 104.248 0 110.241c0 5.994 4.859 10.854 10.854 10.854h112.838l186.066 248.207a10.85 10.85 0 0 0 8.684 4.343h103.234l-37.594 21.699c-5.189 2.995-6.971 9.633-3.973 14.826a10.852 10.852 0 0 0 9.41 5.43c1.842 0 3.707-.469 5.416-1.457l72.67-41.947c3.357-1.938 5.426-5.52 5.426-9.397s-2.068-7.463-5.426-9.402z"/><path d="M238.62 216.158a10.79 10.79 0 0 0 6.524 2.186c3.289 0 6.541-1.492 8.676-4.322l70.031-92.927h97.812l-37.58 21.699c-5.191 2.998-6.971 9.635-3.973 14.827a10.85 10.85 0 0 0 9.41 5.429c1.84 0 3.705-.469 5.414-1.458l72.67-41.958a10.855 10.855 0 0 0 0-18.798l-72.67-41.947c-5.188-3-11.832-1.216-14.824 3.972-2.998 5.193-1.219 11.831 3.973 14.826l37.594 21.7H318.441a10.855 10.855 0 0 0-8.668 4.322l-73.289 97.249c-3.61 4.786-2.652 11.594 2.136 15.2zm-29.646 40.117c-4.797-3.596-11.602-2.62-15.194 2.174l-70.088 93.488H10.854C4.86 351.937 0 356.796 0 362.792c0 5.994 4.859 10.854 10.854 10.854h118.267c3.418 0 6.636-1.607 8.685-4.343l73.342-97.832c3.595-4.798 2.622-11.6-2.174-15.196z"/></svg>